<svg xmlns="http://www.w3.org/2000/svg" width="1160px" height="510px" viewBox="0 0 1160 510" preserveAspectRatio="xMidYMid meet">
  <rect x="0" y="0" width="1160" height="510" fill="#4B5155"/>

  <!-- Card 1 -->
  <rect x="55" y="60" width="230" height="390" fill="#ffffff" rx="6"/>
  <rect x="55" y="60" width="230" height="70" fill="#e8e8e8" rx="6"/>
  <rect x="75" y="82" width="110" height="14" fill="#aaaaaa" rx="3"/>
  <rect x="75" y="104" width="70" height="22" fill="#cccccc" rx="3"/>
  <rect x="75" y="155" width="190" height="10" fill="#dddddd" rx="3"/>
  <rect x="75" y="175" width="160" height="10" fill="#dddddd" rx="3"/>
  <rect x="75" y="195" width="175" height="10" fill="#dddddd" rx="3"/>
  <rect x="75" y="215" width="150" height="10" fill="#dddddd" rx="3"/>
  <rect x="75" y="235" width="170" height="10" fill="#dddddd" rx="3"/>
  <rect x="75" y="390" width="190" height="36" fill="#cccccc" rx="4"/>

  <!-- Card 2 - highlighted, raised -->
  <rect x="315" y="30" width="250" height="430" fill="#ffffff" rx="6" stroke="#4A90D9" stroke-width="3"/>
  <!-- badge -->
  <rect x="380" y="16" width="120" height="24" fill="#4A90D9" rx="12"/>
  <rect x="335" y="30" width="250" height="75" fill="#4A90D9" rx="6"/>
  <rect x="355" y="52" width="120" height="14" fill="#ffffff" rx="3"/>
  <rect x="355" y="74" width="80" height="24" fill="#ffffff" rx="3" fill-opacity="0.7"/>
  <rect x="335" y="130" width="210" height="10" fill="#dddddd" rx="3"/>
  <rect x="335" y="150" width="185" height="10" fill="#dddddd" rx="3"/>
  <rect x="335" y="170" width="200" height="10" fill="#dddddd" rx="3"/>
  <rect x="335" y="190" width="170" height="10" fill="#dddddd" rx="3"/>
  <rect x="335" y="210" width="190" height="10" fill="#dddddd" rx="3"/>
  <rect x="335" y="230" width="160" height="10" fill="#dddddd" rx="3"/>
  <rect x="335" y="395" width="210" height="40" fill="#4A90D9" rx="4"/>

  <!-- Card 3 -->
  <rect x="595" y="60" width="230" height="390" fill="#ffffff" rx="6"/>
  <rect x="595" y="60" width="230" height="70" fill="#e8e8e8" rx="6"/>
  <rect x="615" y="82" width="110" height="14" fill="#aaaaaa" rx="3"/>
  <rect x="615" y="104" width="70" height="22" fill="#cccccc" rx="3"/>
  <rect x="615" y="155" width="190" height="10" fill="#dddddd" rx="3"/>
  <rect x="615" y="175" width="160" height="10" fill="#dddddd" rx="3"/>
  <rect x="615" y="195" width="175" height="10" fill="#dddddd" rx="3"/>
  <rect x="615" y="215" width="150" height="10" fill="#dddddd" rx="3"/>
  <rect x="615" y="235" width="170" height="10" fill="#dddddd" rx="3"/>
  <rect x="615" y="390" width="190" height="36" fill="#cccccc" rx="4"/>

  <!-- Card 4 -->
  <rect x="855" y="60" width="230" height="390" fill="#ffffff" rx="6"/>
  <rect x="855" y="60" width="230" height="70" fill="#e8e8e8" rx="6"/>
  <rect x="875" y="82" width="110" height="14" fill="#aaaaaa" rx="3"/>
  <rect x="875" y="104" width="70" height="22" fill="#cccccc" rx="3"/>
  <rect x="875" y="155" width="190" height="10" fill="#dddddd" rx="3"/>
  <rect x="875" y="175" width="160" height="10" fill="#dddddd" rx="3"/>
  <rect x="875" y="195" width="175" height="10" fill="#dddddd" rx="3"/>
  <rect x="875" y="215" width="150" height="10" fill="#dddddd" rx="3"/>
  <rect x="875" y="235" width="170" height="10" fill="#dddddd" rx="3"/>
  <rect x="875" y="390" width="190" height="36" fill="#cccccc" rx="4"/>
</svg>
